<svg aria-hidden="true" style="position: absolute; width: 0; height: 0; overflow: hidden;" version="1.1"
  xmlns="http://www.w3.org/2000/svg" xmlns:xlink="http://www.w3.org/1999/xlink">
  <defs>
    <symbol id="arrow" viewBox="0 0 32 32">
      <path
        d="M15.104 8.736c-3.712 3.744-6.784 7.008-6.784 7.264 0 0.64 13.472 14.080 14.112 14.080 0.608 0 1.248-0.64 1.248-1.248 0-0.288-2.784-3.264-6.144-6.656l-6.176-6.176 6.176-6.176c3.36-3.392 6.144-6.368 6.144-6.656 0-0.608-0.64-1.248-1.28-1.248-0.256 0-3.552 3.072-7.296 6.816z">
      </path>
    </symbol>

    <symbol id="menu" viewBox="0 0 32 32">
      <path d="M0 6.4v1.6h32v-3.2h-32v1.6z"></path>
      <path d="M0 16v1.6h32v-3.2h-32v1.6z"></path>
      <path d="M0 25.6v1.6h32v-3.2h-32v1.6z"></path>
    </symbol>

    <symbol id="garage" viewBox="0 0 32 32">
      <path
        d="M8.224 6.56c-4.16 3.264-7.584 6.080-7.584 6.24 0 0.512 0.608 0.672 1.28 0.32 0.608-0.32 0.64-0.224 0.704 8.224l0.096 8.576h26.56l0.096-8.576 0.064-8.576 0.672 0.384c0.736 0.384 1.472-0.032 1.12-0.608-0.256-0.416-14.464-11.552-15.008-11.776-0.224-0.064-3.808 2.496-8 5.792zM21.312 12.64c0.384 0.256 1.152 1.536 1.728 2.848 0.96 2.176 1.152 2.4 2.048 2.496 0.864 0.096 0.992 0.224 1.088 1.152 0.096 0.864-0.032 1.12-0.544 1.248-0.608 0.16-0.672 0.448-0.736 4.224l-0.096 4.032h-1.44c-1.44 0-1.44 0-1.536-1.184l-0.096-1.216h-11.456l-0.096 1.184c-0.096 1.216-0.096 1.216-1.536 1.216h-1.44l-0.096-4.032c-0.064-3.776-0.128-4.064-0.736-4.224-0.512-0.128-0.64-0.384-0.544-1.248 0.096-0.96 0.192-1.056 1.376-1.216 1.248-0.16 1.28-0.192 2.144-2.56 0.48-1.312 1.12-2.592 1.44-2.816 0.832-0.608 9.664-0.544 10.528 0.096z">
      </path>
      <path
        d="M11.872 15.424c-0.16 0.416-0.576 1.408-0.96 2.24l-0.64 1.536h11.456l-0.928-2.176-0.896-2.144-3.872-0.096c-3.776-0.096-3.872-0.064-4.16 0.64z">
      </path>
      <path
        d="M9.92 22.24c-0.832 1.024 0.416 2.592 1.536 1.888 0.704-0.448 0.864-1.312 0.384-1.888-0.512-0.608-1.408-0.608-1.92 0z">
      </path>
      <path
        d="M20.16 22.24c-0.48 0.576-0.32 1.44 0.416 1.888 1.088 0.704 2.336-0.864 1.504-1.888-0.512-0.608-1.408-0.608-1.92 0z">
      </path>
    </symbol>

    <symbol id="tire-burning" viewBox="0 0 32 32">
      <path
        d="M12.576 1.472c-0.608 0.256-0.512 0.896 0.192 1.536 0.832 0.768 1.024 1.696 0.48 2.272-0.416 0.416-0.736 0.352-2.464-0.544-1.632-0.832-2.368-0.992-4.224-1.024-2.016-0.032-2.4-0.128-3.744-1.12-0.832-0.608-1.632-0.96-1.856-0.832-0.832 0.512 0.672 5.856 2.016 7.136 0.384 0.384 1.376 0.96 2.176 1.312 1.824 0.832 2.272 1.344 2.144 2.496-0.096 0.768-0.256 0.896-1.184 0.992-1.504 0.16-2.368-0.128-3.488-1.056-1.376-1.152-1.792-0.512-1.216 1.728 0.384 1.472 0.768 2.016 2.848 4 2.368 2.272 2.944 3.232 2.72 4.704-0.064 0.64-0.288 0.768-1.248 0.8-1.728 0.032-1.952 0.288-1.408 1.632 0.832 1.952 2.080 3.328 3.808 4.128 1.6 0.736 2.912 0.992 2.688 0.512-2.368-4.704-3.040-9.664-2.048-14.848 0.832-4.256 2.496-7.136 4.768-8.224 1.216-0.576 1.984-0.672 6.176-0.672l4.768-0.032-1.856-1.728c-1.408-1.344-2.304-1.888-3.84-2.336-2.112-0.672-5.568-1.12-6.208-0.832z">
      </path>
      <path
        d="M13.856 8.288c-1.408 0.864-2.56 2.656-3.392 5.312-1.024 3.2-1.024 9.28 0 12.512 1.12 3.552 3.2 5.888 5.216 5.888s4.096-2.336 5.216-5.888c1.024-3.232 1.024-9.312 0-12.544-1.152-3.584-3.2-5.888-5.28-5.888-0.416 0-1.184 0.288-1.76 0.608zM15.744 13.152c0.96 0.512 1.888 2.944 2.080 5.504 0.416 5.568-1.952 9.728-4.256 7.552-2.272-2.112-2.336-10.272-0.096-12.64 0.8-0.864 1.28-0.928 2.272-0.416z">
      </path>
      <path
        d="M13.856 15.264c-0.832 1.92-0.928 6.592-0.192 8.576 0.352 0.928 0.8 1.6 1.056 1.6 1.024 0 1.76-2.368 1.76-5.6 0-2.4-0.128-3.296-0.64-4.288-0.864-1.696-1.344-1.792-1.984-0.288z">
      </path>
      <path
        d="M20.16 9.12c0.544 0.8 1.152 1.856 1.312 2.368 0.256 0.704 0.736 1.056 2.4 1.728 2.080 0.832 2.080 0.832 1.856 0.128-0.512-1.632-1.76-3.712-2.848-4.64-0.864-0.8-1.44-1.024-2.432-1.024h-1.28l0.992 1.44z">
      </path>
      <path
        d="M24.544 8.384c0.704 0.8 1.888 2.976 2.464 4.608l0.352 1.024 1.28-1.056 1.28-1.088-0.992-1.376c-1.184-1.696-2.816-2.816-4.064-2.816h-0.96l0.64 0.704z">
      </path>
      <path
        d="M28.8 14.432c-1.088 0.928-1.12 0.96-0.992 3.264 0.032 1.248 0.16 2.368 0.224 2.432s0.832-0.352 1.728-0.928c1.568-0.992 1.6-1.088 1.408-2.208-0.32-1.984-0.768-3.552-1.024-3.552-0.128 0.032-0.736 0.448-1.344 0.992z">
      </path>
      <path
        d="M22.496 14.752c0.096 0.416 0.288 1.504 0.416 2.4 0.192 1.6 0.224 1.664 1.92 2.464l1.728 0.864v-2.176c0-1.184-0.128-2.304-0.256-2.496s-0.864-0.576-1.664-0.896c-0.8-0.32-1.632-0.672-1.888-0.768-0.352-0.128-0.416 0.032-0.256 0.608z">
      </path>
      <path
        d="M29.408 20.928c-1.248 0.928-1.504 1.312-1.696 2.496-0.128 0.736-0.32 1.696-0.416 2.112-0.192 0.768-0.192 0.768 1.728-0.224 1.856-0.928 1.92-0.992 2.144-2.464 0.256-1.984 0.256-3.008-0.032-3.008-0.16 0-0.928 0.512-1.728 1.088z">
      </path>
      <path
        d="M22.88 22.496c-0.224 2.464-0.192 2.528 1.856 3.616 0.832 0.448 0.896 0.416 1.184-0.32 0.16-0.448 0.384-1.504 0.512-2.336l0.192-1.536-3.52-1.728-0.224 2.304z">
      </path>
      <path
        d="M21.92 27.2c-0.096 0.512-0.768 1.792-1.44 2.88l-1.28 1.92h1.216c0.64 0 1.6-0.256 2.080-0.608 0.864-0.576 1.12-0.864 2.272-2.624l0.544-0.864-1.44-0.832c-0.768-0.448-1.504-0.832-1.568-0.832-0.096 0-0.256 0.416-0.384 0.96z">
      </path>
      <path
        d="M28.096 27.232c-1.024 0.512-1.856 1.056-1.856 1.216s-0.48 1.024-1.088 1.92l-1.12 1.632h0.8c1.984 0 4.128-2.016 5.248-4.96 0.384-0.992 0.256-0.992-1.984 0.192z">
      </path>
    </symbol>

    <symbol id="car" viewBox="0 0 32 32">
      <path
        d="M10.176 7.328c-1.824 0.256-2.464 0.832-3.456 2.88-0.64 1.408-0.832 1.568-1.568 1.44-0.448-0.096-1.088 0.032-1.44 0.288-0.832 0.608-0.448 1.504 0.672 1.504h0.864l-1.024 1.056c-0.576 0.576-1.184 1.568-1.344 2.176-0.48 1.6-0.416 11.264 0.064 11.744 0.512 0.512 3.84 0.512 4.352 0 0.224-0.224 0.384-0.672 0.384-1.024 0-0.672 0.16-0.672 8.32-0.672s8.32 0 8.32 0.64c0 1.088 0.64 1.44 2.56 1.44 0.992 0 1.952-0.16 2.176-0.384 0.48-0.48 0.544-10.144 0.064-11.744-0.16-0.608-0.768-1.6-1.344-2.176l-1.024-1.056h0.864c1.12 0 1.504-0.896 0.672-1.504-0.32-0.256-0.992-0.384-1.44-0.288-0.736 0.128-0.896-0.032-1.664-1.568-1.312-2.688-1.6-2.816-8-2.912-3.040-0.032-6.176 0.032-7.008 0.16zM22.88 8.96c0.48 0.384 1.76 2.592 1.76 3.040 0 0.096-3.872 0.16-8.64 0.16-4.736 0-8.64-0.096-8.64-0.256 0-0.224 1.216-2.624 1.472-2.912 0.704-0.768 13.152-0.768 14.048-0.032zM9.504 15.52l2.176 2.4h8.608l2.336-2.496c1.888-2.016 2.368-2.368 2.624-1.984 0.192 0.256 0.352 0.544 0.352 0.64-0.032 0.096-1.088 1.28-2.368 2.624l-2.368 2.496h-4.8c-5.408 0-4.768 0.256-7.872-3.072-1.216-1.344-1.728-2.112-1.6-2.496 0.096-0.288 0.32-0.512 0.448-0.512 0.16 0 1.248 1.088 2.464 2.4zM6.56 16.768c0.64 0.448 1.312 0.864 1.536 0.96 0.704 0.288-0.512 0.832-1.92 0.832-2.272 0-2.784-0.48-2.016-1.952 0.448-0.8 1.024-0.768 2.4 0.16zM27.968 17.056c0.416 1.152-0.064 1.504-2.048 1.504-1.472 0-2.752-0.544-2.016-0.832 0.224-0.096 0.864-0.512 1.44-0.928 1.344-0.992 2.24-0.896 2.624 0.256zM10.176 21.696c0.128 0.448-1.792 1.344-2.976 1.344-0.736 0-0.8 0.064-0.448 0.672 0.256 0.48 0.256 0.768 0 1.024-0.512 0.512-1.28-0.384-1.536-1.792l-0.192-1.184h1.568c0.864 0 1.792-0.16 2.048-0.32 0.608-0.416 1.344-0.288 1.536 0.256zM25.248 21.664l1.696 0.16-0.192 1.152c-0.224 1.376-0.992 2.272-1.504 1.76-0.256-0.256-0.256-0.544 0-1.024 0.352-0.608 0.288-0.672-0.448-0.672-0.992 0-3.040-0.8-3.040-1.216 0-0.512 0.448-0.736 1.12-0.512 0.352 0.128 1.408 0.288 2.368 0.352zM21.92 24.32c0.576 0.64 0.544 0.64-5.952 0.64l-6.528-0.032 0.768-0.608c0.672-0.576 1.248-0.64 5.952-0.64 4.768 0 5.216 0.064 5.76 0.64z">
      </path>
    </symbol>

    <symbol id="close" viewBox="0 0 32 32">
      <path id="Vector" d="M24 7L7 24" stroke="currentColor" stroke-width="1.8" stroke-linecap="round"
        stroke-linejoin="round" />
      <path id="Vector_2" d="M7 7L24 24" stroke="currentColor" stroke-width="1.8" stroke-linecap="round"
        stroke-linejoin="round" />
    </symbol>

    <symbol id="heart1" viewBox="0 0 18 18">
      <path
        d="M15.6301 3.45753C15.247 3.07428 14.7922 2.77026 14.2916 2.56284C13.791 2.35542 13.2545 2.24866 12.7126 2.24866C12.1707 2.24866 11.6342 2.35542 11.1336 2.56284C10.633 2.77026 10.1782 3.07428 9.79509 3.45753L9.00009 4.25253L8.20509 3.45753C7.43132 2.68376 6.38186 2.24906 5.28759 2.24906C4.19331 2.24906 3.14386 2.68376 2.37009 3.45753C1.59632 4.2313 1.16162 5.28075 1.16162 6.37503C1.16162 7.4693 1.59632 8.51876 2.37009 9.29253L3.16509 10.0875L9.00009 15.9225L14.8351 10.0875L15.6301 9.29253C16.0133 8.90946 16.3174 8.45464 16.5248 7.95404C16.7322 7.45345 16.839 6.91689 16.839 6.37503C16.839 5.83316 16.7322 5.2966 16.5248 4.79601C16.3174 4.29542 16.0133 3.84059 15.6301 3.45753Z"
        fill="none" stroke="white" stroke-opacity="0.8" stroke-width="1.5" stroke-linecap="round"
        stroke-linejoin="round" />
    </symbol>

    <symbol id="heart2" viewBox="0 0 18 18">
      <path
        d="M15.6301 3.45753C15.247 3.07428 14.7922 2.77026 14.2916 2.56284C13.791 2.35542 13.2545 2.24866 12.7126 2.24866C12.1707 2.24866 11.6342 2.35542 11.1336 2.56284C10.633 2.77026 10.1782 3.07428 9.79509 3.45753L9.00009 4.25253L8.20509 3.45753C7.43132 2.68376 6.38186 2.24906 5.28759 2.24906C4.19331 2.24906 3.14386 2.68376 2.37009 3.45753C1.59632 4.2313 1.16162 5.28075 1.16162 6.37503C1.16162 7.4693 1.59632 8.51876 2.37009 9.29253L3.16509 10.0875L9.00009 15.9225L14.8351 10.0875L15.6301 9.29253C16.0133 8.90946 16.3174 8.45464 16.5248 7.95404C16.7322 7.45345 16.839 6.91689 16.839 6.37503C16.839 5.83316 16.7322 5.2966 16.5248 4.79601C16.3174 4.29542 16.0133 3.84059 15.6301 3.45753Z"
        fill="#3470FF" stroke="#3470FF" stroke-linecap="round" stroke-linejoin="round" />
    </symbol>
  </defs>
</svg>